<?xml version="1.0" encoding="UTF-8" standalone="no"?>
<svg width="400px" height="400px" viewBox="0 0 400 400" version="1.1" xmlns="http://www.w3.org/2000/svg" xmlns:xlink="http://www.w3.org/1999/xlink" xmlns:sketch="http://www.bohemiancoding.com/sketch/ns">
    <title>Slice 1</title>
    <description>Created with Sketch (http://www.bohemiancoding.com/sketch)</description>
    <defs></defs>
    <g id="Page 1" stroke="none" stroke-width="1" fill="none" fill-rule="evenodd" sketch:type="MSPage">
        <g id="Group" sketch:type="MSLayerGroup" transform="translate(200.000000, 200.000000) rotate(-22.000000) translate(-200.000000, -200.000000) ">
            <path d="M60.7157304,343.52691 C96.0618037,377.834233 144.037983,399.199335 197,399.977957 L197,299.95586 C171.649327,299.208935 148.666697,289.027047 131.44227,272.800371 L60.7157304,343.52691 Z M60.7157304,343.52691" id="Path" fill="#2841A4" sketch:type="MSShapeGroup"></path>
            <path d="M0.0220428213,203 C0.800748012,255.962147 22.1659154,303.93837 56.4730914,339.284268 L127.199629,268.55773 C110.972953,251.333303 100.791065,228.350673 100.04414,203.000013 L0.0220428213,203 Z M0.0220428213,203" id="Path" fill="#3892E3" sketch:type="MSShapeGroup"></path>
            <path d="M56.4730914,60.7157321 C22.1659154,96.0616297 0.800748012,144.037853 0.0220428213,197 L100.04414,197 C100.791065,171.649327 110.972953,148.666697 127.199629,131.44227 L56.4730914,60.7157321 Z M56.4730914,60.7157321" id="Path" fill="#34E0C2" sketch:type="MSShapeGroup"></path>
            <path d="M197,0.0220428212 C144.037983,0.800665202 96.0618037,22.1657668 60.7157304,56.4730897 L131.44227,127.199629 C148.666697,110.972953 171.649327,100.791065 196.999987,100.04414 L197,0.0220428212 Z M197,0.0220428212" id="Path" fill="#79CF19" sketch:type="MSShapeGroup"></path>
            <path d="M339.28427,56.4730897 C303.938196,22.1657668 255.962017,0.800665202 203,0.0220428212 L203,100.04414 C228.350673,100.791065 251.333303,110.972953 268.55773,127.199629 L339.28427,56.4730897 Z M339.28427,56.4730897" id="Path" fill="#FBE500" sketch:type="MSShapeGroup"></path>
            <path d="M399.977957,197 C399.199252,144.037853 377.834085,96.0616297 343.526909,60.7157321 L272.800371,131.44227 C289.027047,148.666697 299.208935,171.649327 299.95586,196.999987 L399.977957,197 Z M399.977957,197" id="Path" fill="#FBA617" sketch:type="MSShapeGroup"></path>
            <path d="M343.526909,339.284268 C377.834085,303.93837 399.199252,255.962147 399.977957,203 L299.95586,203 C299.208935,228.350672 289.027047,251.333303 272.800371,268.557729 L343.526909,339.284268 Z M343.526909,339.284268" id="Path" fill="#D70014" sketch:type="MSShapeGroup"></path>
            <path d="M203,399.977957 C255.962017,399.199335 303.938196,377.834233 339.28427,343.52691 L268.55773,272.800371 C251.333303,289.027047 228.350673,299.208935 203.000013,299.95586 L203,399.977957 Z M203,399.977957" id="Path" fill="#C000E1" sketch:type="MSShapeGroup"></path>
        </g>
    </g>
</svg>